# xmcd CD database file
#
# Track frame offsets:
#	150
#	15617
#	34292
#	51340
#	70367
#	85007
#	103187
#	121442
#	142140
#	161617
#	179440
#	193645
#	213525
#
# Disc length: 3074 seconds
#
# Revision: 0
# Processed by: cddbd v1.5.2PL0 Copyright (c) Steve Scherf et al.
# Submitted via: CDex 1.40Beta8
#
DISCID=c30c000d
DTITLE=Delmiro Barros - Mistura Perfeita
DYEAR=1999
DGENRE=Forró
TTITLE0=Fonte do Amor
TTITLE1=Paixão Cabocla
TTITLE2=Ladeira Tambuá
TTITLE3=Seu Doutor
TTITLE4=Bateu no Peito
TTITLE5=Festa Que Gosto
TTITLE6=Vou Tomar Posse do Seu Coração
TTITLE7=Beira-Mar
TTITLE8=Sem Dormir
TTITLE9=O Vaqueiro e o Cantador
TTITLE10=Quando Te Ví
TTITLE11=Balanço
TTITLE12=Coração Bandoleiro
EXTD=YEAR: 1999
EXTT0=
EXTT1=
EXTT2=
EXTT3=
EXTT4=
EXTT5=
EXTT6=
EXTT7=
EXTT8=
EXTT9=
EXTT10=
EXTT11=
EXTT12=
PLAYORDER=
